<svg width="24" height="24" viewBox="0 0 24 24" fill="none" xmlns="http://www.w3.org/2000/svg">
<path d="M18.1162 4.11621C18.6044 3.62806 19.3956 3.62806 19.8838 4.11621C20.3719 4.60437 20.3719 5.39563 19.8838 5.88379L13.7676 12L19.8838 18.1162C20.3719 18.6044 20.3719 19.3956 19.8838 19.8838C19.3956 20.3719 18.6044 20.3719 18.1162 19.8838L12 13.7676L5.88379 19.8838C5.39563 20.3719 4.60437 20.3719 4.11621 19.8838C3.62806 19.3956 3.62806 18.6044 4.11621 18.1162L10.2324 12L4.11621 5.88379C3.62806 5.39563 3.62806 4.60437 4.11621 4.11621C4.60437 3.62806 5.39563 3.62806 5.88379 4.11621L12 10.2324L18.1162 4.11621Z" fill="#566681"/>
</svg>
